<svg t="1712594438251" class="icon" viewBox="0 0 1024 1024" version="1.1" xmlns="http://www.w3.org/2000/svg"><path d="M512 984.4c-7.8 0-15.6-0.2-23.2-0.6-7.6-0.4-15.4-1-23.2-1.8-7.6-0.8-15.4-1.8-23-2.8-7.6-1.2-15.4-2.4-22.8-4-7.6-1.6-15.2-3.2-22.6-5-7.4-1.8-15-4-22.4-6.2-7.4-2.2-14.8-4.6-22-7.2-7.2-2.6-14.6-5.4-21.6-8.4-7.2-3-14.2-6.2-21.2-9.4s-14-6.8-20.8-10.4c-6.8-3.6-13.6-7.4-20.2-11.4s-13.2-8.2-19.6-12.4c-6.4-4.2-12.8-8.8-19-13.4-6.2-4.6-12.4-9.4-18.2-14.2-6-4.8-11.8-10-17.6-15.2-5.8-5.2-11.4-10.6-16.8-16s-10.8-11-16-16.8c-5.2-5.8-10.2-11.6-15.2-17.6-4.8-6-9.6-12-14.2-18.2-4.6-6.2-9-12.6-13.4-19s-8.4-13-12.4-19.6c-4-6.6-7.8-13.4-11.4-20.2-3.6-6.8-7.2-13.8-10.4-20.8s-6.4-14-9.4-21.2c-3-7.2-5.8-14.4-8.4-21.6-2.6-7.2-5-14.6-7.2-22s-4.4-14.8-6.2-22.4c-1.8-7.4-3.6-15-5-22.6-1.4-7.6-2.8-15.2-4-22.8-1.2-7.6-2-15.4-2.8-23-0.8-7.6-1.4-15.4-1.8-23.2-0.4-7.6-0.6-15.4-0.6-23.2 0-7.8 0.2-15.6 0.6-23.2 0.4-7.6 1-15.4 1.8-23.2 0.8-7.6 1.8-15.4 2.8-23 1.2-7.6 2.4-15.4 4-22.8 1.4-7.6 3.2-15.2 5-22.6 1.8-7.4 4-15 6.2-22.4 2.2-7.4 4.6-14.8 7.2-22 2.6-7.2 5.4-14.6 8.4-21.6 3-7.2 6.2-14.2 9.4-21.2s6.8-14 10.4-20.8c3.6-6.8 7.4-13.6 11.4-20.2s8.2-13.2 12.4-19.6c4.2-6.4 8.8-12.8 13.4-19 4.6-6.2 9.4-12.4 14.2-18.2 4.8-6 10-11.8 15.2-17.6 5.2-5.8 10.6-11.4 16-16.8s11-10.8 16.8-16c5.8-5.2 11.6-10.2 17.6-15.2 6-4.8 12.2-9.6 18.2-14.2 6.2-4.6 12.6-9 19-13.4 6.4-4.2 13-8.4 19.6-12.4 6.6-4 13.4-7.8 20.2-11.4 6.8-3.6 13.8-7.2 20.8-10.4s14-6.4 21.2-9.4c7.2-3 14.4-5.8 21.6-8.4 7.2-2.6 14.6-5 22-7.2s14.8-4.4 22.4-6.2c7.4-1.8 15-3.6 22.6-5 7.6-1.4 15.2-2.8 22.8-4 7.6-1.2 15.4-2 23-2.8 7.6-0.8 15.4-1.4 23.2-1.8a448.834 448.834 0 0 1 69.6 1.8c7.6 0.8 15.4 1.8 23 2.8 7.6 1.2 15.4 2.4 22.8 4 7.6 1.4 15.2 3.2 22.6 5 7.4 1.8 15 4 22.4 6.2 7.4 2.2 14.8 4.6 22 7.2 7.2 2.6 14.6 5.4 21.6 8.4 7.2 3 14.2 6.2 21.2 9.4s14 6.8 20.8 10.4c6.8 3.6 13.6 7.4 20.2 11.4s13.2 8.2 19.6 12.4 12.8 8.8 19 13.4c6.2 4.6 12.4 9.4 18.2 14.2 6 4.8 11.8 10 17.6 15.2 5.8 5.2 11.4 10.6 16.8 16s10.8 11 16 16.8c5.2 5.8 10.2 11.6 15.2 17.6 4.8 6 9.6 12.2 14.2 18.2 4.6 6.2 9 12.6 13.4 19 4.2 6.4 8.4 13 12.4 19.6 4 6.6 7.8 13.4 11.4 20.2s7.2 13.8 10.4 20.8 6.4 14 9.4 21.2c3 7.2 5.8 14.4 8.4 21.6 2.6 7.2 5 14.6 7.2 22s4.4 14.8 6.2 22.4c1.8 7.4 3.6 15 5 22.6 1.6 7.6 2.8 15.2 4 22.8 1.2 7.6 2 15.4 2.8 23 0.8 7.6 1.4 15.4 1.8 23.2 0.4 7.6 0.6 15.4 0.6 23.2 0 7.8-0.2 15.6-0.6 23.2-0.4 7.6-1 15.4-1.8 23.2-0.8 7.6-1.8 15.4-2.8 23-1.2 7.6-2.4 15.4-4 22.8-1.6 7.6-3.2 15.2-5 22.6-1.8 7.4-4 15-6.2 22.4-2.2 7.4-4.6 14.8-7.2 22-2.6 7.2-5.4 14.6-8.4 21.6s-6.2 14.2-9.4 21.2-6.8 14-10.4 20.8c-3.6 6.8-7.4 13.6-11.4 20.2s-8.2 13.2-12.4 19.6c-4.2 6.4-8.8 12.8-13.4 19-4.6 6.2-9.4 12.4-14.2 18.2-4.8 6-10 11.8-15.2 17.6-5.2 5.8-10.6 11.4-16 16.8s-11 10.8-16.8 16c-5.8 5.2-11.6 10.2-17.6 15.2-6 4.8-12.2 9.6-18.2 14.2-6.2 4.6-12.6 9-19 13.4-6.4 4.2-13 8.4-19.6 12.4-6.6 4-13.4 7.8-20.2 11.4-6.8 3.6-13.8 7.2-20.8 10.4s-14 6.4-21.2 9.4c-7.2 3-14.4 5.8-21.6 8.4-7.2 2.6-14.6 5-22 7.2s-14.8 4.4-22.4 6.2c-7.4 1.8-15 3.6-22.6 5-7.6 1.6-15.2 2.8-22.8 4-7.6 1.2-15.4 2-23 2.8-7.6 0.8-15.4 1.4-23.2 1.8-7.6 0.6-15.4 0.6-23.2 0.6z m0-877.4c-6.6 0-13.2 0.2-19.8 0.4-6.6 0.4-13.2 0.8-19.8 1.4-6.6 0.6-13.2 1.4-19.8 2.4-6.6 1-13.2 2.2-19.6 3.4-6.4 1.2-13 2.8-19.4 4.4-6.4 1.6-12.8 3.4-19.2 5.4-6.4 2-12.6 4-18.8 6.2-6.2 2.2-12.4 4.6-18.6 7.2-6 2.6-12.2 5.2-18.2 8s-12 5.8-17.8 9c-5.8 3.2-11.6 6.4-17.2 9.8-5.6 3.4-11.4 7-16.8 10.6-5.4 3.6-11 7.6-16.2 11.4-5.2 4-10.6 8-15.6 12.2-5 4.2-10.2 8.6-15 13-4.8 4.4-9.8 9-14.4 13.8-4.6 4.6-9.2 9.6-13.8 14.4-4.4 4.8-8.8 10-13 15-4.2 5.2-8.4 10.4-12.2 15.6-4 5.4-7.8 10.8-11.4 16.2-3.6 5.4-7.2 11.2-10.6 16.8-3.4 5.6-6.6 11.4-9.8 17.2-3.2 5.8-6.2 11.8-9 17.8s-5.6 12-8 18.2c-2.6 6.2-5 12.4-7.2 18.6-2.2 6.2-4.4 12.6-6.2 18.8-2 6.4-3.6 12.8-5.4 19.2-1.6 6.4-3 13-4.4 19.4-1.2 6.4-2.4 13-3.4 19.6a334 334 0 0 0-2.4 19.8c-0.6 6.6-1.2 13.2-1.4 19.8-0.4 6.6-0.4 13.2-0.4 19.8s0.2 13.2 0.4 19.8c0.4 6.6 0.8 13.2 1.4 19.8 0.6 6.6 1.4 13.2 2.4 19.8 1 6.6 2.2 13.2 3.4 19.6 1.2 6.4 2.8 13 4.4 19.4 1.6 6.4 3.4 12.8 5.4 19.2 2 6.2 4 12.6 6.2 18.8 2.2 6.2 4.6 12.4 7.2 18.6 2.6 6 5.2 12.2 8 18.2s5.8 12 9 17.8c3.2 5.8 6.4 11.6 9.8 17.2 3.4 5.6 7 11.4 10.6 16.8 3.6 5.4 7.6 11 11.4 16.2 4 5.2 8 10.6 12.2 15.6 4.2 5 8.6 10.2 13 15 4.4 4.8 9 9.8 13.8 14.4 4.6 4.6 9.6 9.2 14.4 13.8 4.8 4.4 10 8.8 15 13 5.2 4.2 10.4 8.4 15.6 12.2 5.4 4 10.8 7.8 16.2 11.4 5.4 3.6 11.2 7.2 16.8 10.6 5.6 3.4 11.4 6.6 17.2 9.8 5.8 3.2 11.8 6.2 17.8 9s12 5.6 18.2 8c6.2 2.6 12.4 5 18.6 7.2 6.2 2.2 12.6 4.4 18.8 6.2 6.4 2 12.8 3.6 19.2 5.4 6.4 1.6 13 3 19.4 4.4 6.4 1.2 13 2.4 19.6 3.4 6.6 1 13.2 1.8 19.8 2.4 6.6 0.6 13.2 1.2 19.8 1.4 13.2 0.6 26.6 0.6 39.8 0 6.6-0.4 13.2-0.8 19.8-1.4 6.6-0.6 13.2-1.4 19.8-2.4 6.6-1 13.2-2.2 19.6-3.4 6.4-1.2 13-2.8 19.4-4.4 6.4-1.6 12.8-3.4 19.2-5.4 6.4-2 12.6-4 18.8-6.2 6.2-2.2 12.4-4.6 18.6-7.2 6.2-2.6 12.2-5.2 18.2-8s12-5.8 17.8-9c5.8-3.2 11.6-6.4 17.2-9.8 5.6-3.4 11.4-7 16.8-10.6 5.4-3.6 11-7.6 16.2-11.4 5.2-4 10.6-8 15.6-12.2 5-4.2 10.2-8.6 15-13 5-4.4 9.8-9 14.4-13.8 4.6-4.6 9.2-9.6 13.8-14.4 4.4-4.8 8.8-10 13-15 4.2-5.2 8.4-10.4 12.2-15.6 4-5.4 7.8-10.8 11.4-16.2 3.6-5.4 7.2-11.2 10.6-16.8 3.4-5.6 6.6-11.4 9.8-17.2 3.2-5.8 6.2-11.8 9-17.8s5.6-12 8-18.2c2.6-6.2 5-12.4 7.2-18.6 2.2-6.2 4.4-12.6 6.2-18.8 2-6.4 3.6-12.8 5.4-19.2 1.6-6.4 3-13 4.4-19.4 1.2-6.4 2.4-13 3.4-19.6 1-6.6 1.8-13.2 2.4-19.8 0.6-6.6 1.2-13.2 1.4-19.8 0.4-6.6 0.4-13.2 0.4-19.8 0-6.6-0.2-13.2-0.4-19.8-0.4-6.6-0.8-13.2-1.4-19.8a334 334 0 0 0-2.4-19.8c-1-6.6-2.2-13.2-3.4-19.6-1.2-6.4-2.8-13-4.4-19.4-1.6-6.4-3.4-12.8-5.4-19.2-2-6.4-4-12.6-6.2-18.8-2.2-6.2-4.6-12.4-7.2-18.6-2.6-6.2-5.2-12.2-8-18.2s-5.8-12-9-17.8c-3.2-5.8-6.4-11.6-9.8-17.2-3.4-5.6-7-11.4-10.6-16.8-3.6-5.4-7.6-11-11.4-16.2-4-5.2-8-10.6-12.2-15.6-4.2-5-8.6-10.2-13-15-4.4-4.8-9-9.8-13.8-14.4-4.6-4.6-9.6-9.2-14.4-13.8-4.8-4.4-10-8.8-15-13-5.2-4.2-10.4-8.4-15.6-12.2-5.4-4-10.8-7.8-16.2-11.4-5.4-3.6-11.2-7.2-16.8-10.6-5.6-3.4-11.4-6.6-17.2-9.8-5.8-3.2-11.8-6.2-17.8-9s-12-5.6-18.2-8c-6.2-2.6-12.4-5-18.6-7.2-6.2-2.2-12.6-4.4-18.8-6.2-6.4-2-12.8-3.8-19.2-5.4-6.4-1.6-13-3-19.4-4.4-6.4-1.2-13-2.4-19.6-3.4a334 334 0 0 0-19.8-2.4c-6.6-0.6-13.2-1.2-19.8-1.4-6.8-0.2-13.4-0.4-20-0.4z" p-id="15524"></path><path d="M512 73.2v270c-2.8 0-5.6 0-8.2 0.2-2.8 0.2-5.6 0.4-8.2 0.6-2.8 0.2-5.4 0.6-8.2 1s-5.4 0.8-8.2 1.4c-2.8 0.6-5.4 1.2-8 1.8-2.6 0.6-5.4 1.4-8 2.2-2.6 0.8-5.2 1.6-7.8 2.6l-7.8 3c-2.6 1-5 2.2-7.6 3.4-2.4 1.2-5 2.4-7.4 3.8-2.4 1.4-4.8 2.6-7.2 4s-4.8 2.8-7 4.4c-2.2 1.6-4.6 3.2-6.8 4.8-2.2 1.6-4.4 3.4-6.6 5-2.2 1.8-4.2 3.6-6.2 5.4-2 1.8-4 3.8-6 5.8s-3.8 4-5.8 6c-1.8 2-3.6 4.2-5.4 6.2-1.8 2.2-3.4 4.4-5 6.6-1.6 2.2-3.2 4.4-4.8 6.8-1.6 2.2-3 4.6-4.4 7s-2.8 4.8-4 7.2c-1.4 2.4-2.6 5-3.8 7.4-1.2 2.4-2.2 5-3.4 7.6l-3 7.8c-1 2.6-1.8 5.2-2.6 7.8s-1.6 5.4-2.2 8c-0.6 2.6-1.2 5.4-1.8 8s-1 5.4-1.4 8.2c-0.4 2.8-0.8 5.4-1 8.2-0.2 2.8-0.4 5.6-0.6 8.2-0.2 2.8-0.2 5.6-0.2 8.2 0 2.8 0 5.6 0.2 8.2 0.2 2.8 0.4 5.6 0.6 8.2 0.2 2.8 0.6 5.4 1 8.2 0.4 2.8 0.8 5.4 1.4 8.2 0.6 2.8 1.2 5.4 1.8 8 0.6 2.6 1.4 5.4 2.2 8s1.6 5.2 2.6 7.8l3 7.8c1 2.6 2.2 5 3.4 7.6 1.2 2.4 2.4 5 3.8 7.4 1.4 2.4 2.6 4.8 4 7.2 1.4 2.4 2.8 4.8 4.4 7 1.6 2.2 3.2 4.6 4.8 6.8 1.6 2.2 3.4 4.4 5 6.6 1.8 2.2 3.6 4.2 5.4 6.2 1.8 2 3.8 4 5.8 6s4 3.8 6 5.8 4.2 3.6 6.2 5.4 4.4 3.4 6.6 5 4.4 3.2 6.8 4.8c2.2 1.6 4.6 3 7 4.4 2.4 1.4 4.8 2.8 7.2 4 2.4 1.4 5 2.6 7.4 3.8 2.4 1.2 5 2.2 7.6 3.4l7.8 3c2.6 1 5.2 1.8 7.8 2.6 2.6 0.8 5.4 1.6 8 2.2 2.6 0.6 5.4 1.2 8 1.8 2.8 0.6 5.4 1 8.2 1.4 2.8 0.4 5.4 0.8 8.2 1 2.8 0.2 5.6 0.4 8.2 0.6 2.8 0.2 5.6 0.2 8.2 0.2v270c-242.4 0-438.8-196.4-438.8-438.8S269.6 73.2 512 73.2z m0 270v337.4c2.8 0 5.6 0 8.2-0.2 2.8-0.2 5.6-0.4 8.2-0.6 2.8-0.2 5.4-0.6 8.2-1 2.8-0.4 5.4-0.8 8.2-1.4 2.8-0.6 5.4-1.2 8-1.8 2.6-0.6 5.4-1.4 8-2.2 2.6-0.8 5.2-1.6 7.8-2.6l7.8-3c2.6-1 5-2.2 7.6-3.4s5-2.4 7.4-3.8c2.4-1.4 4.8-2.6 7.2-4 2.4-1.4 4.8-2.8 7-4.4 2.2-1.6 4.6-3.2 6.8-4.8 2.2-1.6 4.4-3.4 6.6-5 2.2-1.8 4.2-3.6 6.2-5.4 2-1.8 4-3.8 6-5.8s3.8-4 5.8-6c1.8-2 3.6-4.2 5.4-6.2 1.8-2.2 3.4-4.4 5-6.6 1.6-2.2 3.2-4.4 4.8-6.8 1.6-2.2 3-4.6 4.4-7 1.4-2.4 2.8-4.8 4-7.2 1.4-2.4 2.6-5 3.8-7.4s2.2-5 3.4-7.6l3-7.8c1-2.6 1.8-5.2 2.6-7.8s1.6-5.4 2.2-8c0.6-2.6 1.2-5.4 1.8-8 0.6-2.8 1-5.4 1.4-8.2 0.4-2.8 0.8-5.4 1-8.2 0.2-2.8 0.4-5.6 0.6-8.2 0.2-2.8 0.2-5.6 0.2-8.2 0-2.8 0-5.6-0.2-8.2-0.2-2.8-0.4-5.6-0.6-8.2-0.2-2.8-0.6-5.4-1-8.2-0.4-2.8-0.8-5.4-1.4-8.2-0.6-2.8-1.2-5.4-1.8-8-0.6-2.6-1.4-5.4-2.2-8s-1.6-5.2-2.6-7.8l-3-7.8c-1-2.6-2.2-5-3.4-7.6-1.2-2.4-2.4-5-3.8-7.4-1.4-2.4-2.6-4.8-4-7.2s-2.8-4.8-4.4-7c-1.6-2.2-3.2-4.6-4.8-6.8-1.6-2.2-3.4-4.4-5-6.6-1.8-2.2-3.6-4.2-5.4-6.2-1.8-2-3.8-4-5.8-6s-4-3.8-6-5.8c-2-1.8-4.2-3.6-6.2-5.4-2.2-1.8-4.4-3.4-6.6-5-2.2-1.6-4.4-3.2-6.8-4.8-2.2-1.6-4.6-3-7-4.4-2.4-1.4-4.8-2.8-7.2-4s-5-2.6-7.4-3.8c-2.4-1.2-5-2.2-7.6-3.4l-7.8-3c-2.6-1-5.2-1.8-7.8-2.6-2.6-0.8-5.4-1.6-8-2.2-2.6-0.6-5.4-1.2-8-1.8-2.8-0.6-5.4-1-8.2-1.4s-5.4-0.8-8.2-1c-2.8-0.2-5.6-0.4-8.2-0.6-2.6-0.2-5.4-0.4-8.2-0.4z" p-id="15525"></path></svg>