<svg viewBox="0 0 496 496" xmlns="http://www.w3.org/2000/svg"><g transform="matrix(0.18076801300048828, 0, 0, -0.18012399971485135, -115.96228963080476, 605.5003141984389)" stroke="none" style=""><path d="M1925 3358 c-669 -48 -1202 -561 -1275 -1227 -45 -411 90 -811 373 -1108 208 -217 466 -356 761 -410 122 -22 360 -22 482 0 208 38 425 131 585 252 372 279 576 711 555 1175 -7 159 -22 241 -70 383 -199 597 -778 980 -1411 935z m789 -738 c18 -43 2 -159 -24 -181 -11 -9 -49 -22 -85 -28 -36 -6 -94 -16 -130 -22 l-65 -11 0 -349 0 -349 96 -190 c96 -187 97 -190 80 -215 -17 -25 -19 -26 -113 -23 l-97 3 -38 65 c-20 36 -65 121 -100 189 l-63 124 0 354 0 353 -25 -5 c-14 -2 -81 -14 -150 -25 -69 -11 -137 -23 -152 -26 l-28 -6 0 -437 c0 -286 -4 -449 -11 -469 -7 -21 -30 -44 -75 -73 -72 -47 -109 -52 -136 -19 -17 21 -18 54 -18 492 l0 470 -27 -6 c-16 -4 -66 -13 -113 -21 -175 -31 -196 -20 -185 99 4 41 13 83 20 93 11 15 134 39 667 129 359 62 677 112 706 113 50 1 54 -1 66 -29z"/></g></svg>